HIERARCHY
ROOT hip
{
	OFFSET 0.000000 0.000000 0.000000 
	CHANNELS 6 Xposition Yposition Zposition Xrotation Zrotation Yrotation
	JOINT abdomen
	{
		OFFSET 0.000000 3.402643 0.000000 
		CHANNELS 3 Xrotation Zrotation Yrotation
		JOINT chest
		{
			OFFSET 0.000000 8.438565 -0.680529 
			CHANNELS 3 Xrotation Zrotation Yrotation
			JOINT neck
			{
				OFFSET 0.000000 10.207942 -0.272212 
				CHANNELS 3 Xrotation Zrotation Yrotation
				JOINT head
				{
					OFFSET 0.000000 3.130431 0.000000 
					CHANNELS 3 Xrotation Zrotation Yrotation
					End Site
					{
						OFFSET 0.000000 3.130435 0.000000 
					}
				}
			}
			JOINT lCollar
			{
				OFFSET 3.470700 6.669187 -0.816635 
				CHANNELS 3 Yrotation Zrotation Xrotation
				JOINT lShldr
				{
					OFFSET 3.198488 0.000000 0.000000 
					CHANNELS 3 Zrotation Yrotation Xrotation
					JOINT lForeArm
					{
						OFFSET 10.139888 0.000000 0.000000 
						CHANNELS 3 Yrotation Zrotation Xrotation
						JOINT lHand
						{
							OFFSET 8.370511 0.000000 0.000000 
							CHANNELS 3 Zrotation Yrotation Xrotation
							End Site
							{
								OFFSET 4.083176 0.000000 0.000000 
							}
						}
					}
				}
			}
			JOINT rCollar
			{
				OFFSET -3.470700 6.669187 -0.816635 
				CHANNELS 3 Yrotation Zrotation Xrotation
				JOINT rShldr
				{
					OFFSET -3.198488 0.000000 0.000000 
					CHANNELS 3 Zrotation Yrotation Xrotation
					JOINT rForeArm
					{
						OFFSET -10.139888 0.000000 0.000000 
						CHANNELS 3 Yrotation Zrotation Xrotation
						JOINT rHand
						{
							OFFSET -8.370511 0.000000 0.000000 
							CHANNELS 3 Zrotation Yrotation Xrotation
							End Site
							{
								OFFSET -4.083176 0.000000 0.000000 
							}
						}
					}
				}
			}
		}
	}
	JOINT lThigh
	{
		OFFSET 5.308129 -1.633274 1.361059 
		CHANNELS 3 Xrotation Zrotation Yrotation
		JOINT lShin
		{
			OFFSET -2.041588 -20.007561 0.000000 
			CHANNELS 3 Xrotation Zrotation Yrotation
			JOINT lFoot
			{
				OFFSET 0.000000 -19.190928 -1.224953 
				CHANNELS 3 Xrotation Yrotation Zrotation
				End Site
				{
					OFFSET 0.000000 -2.449906 4.627600 
				}
			}
		}
	}
	JOINT rThigh
	{
		OFFSET -5.308129 -1.633274 1.361059 
		CHANNELS 3 Xrotation Zrotation Yrotation
		JOINT rShin
		{
			OFFSET 2.041588 -20.007561 0.000000 
			CHANNELS 3 Xrotation Zrotation Yrotation
			JOINT rFoot
			{
				OFFSET 0.000000 -19.190928 -1.224953 
				CHANNELS 3 Xrotation Yrotation Zrotation
				End Site
				{
					OFFSET 0.000000 -2.449906 4.627600 
				}
			}
		}
	}
}
MOTION
Frames: 6
Frame Time: 0.033333
33.057560 45.184093 -124.892578 -57.061733 -7.667277 -77.816780 31.433220 4.539418 -2.075698 -20.839844 0.000000 0.000000 -10.748619 -17.124651 -51.556515 -2.520846 -1.255050 0.218350 -4.754607 -0.109226 -0.002657 -24.141766 -2.520983 -40.397923 -44.068916 16.365337 -43.660477 -24.451750 1.488642 -39.551476 4.754607 0.109226 -0.002676 2.763029 15.882881 -32.463409 56.061893 0.937145 -31.269672 -17.109400 -15.941055 -43.999004 5.627788 -8.719586 -39.743179 33.553913 17.019024 -12.708650 -7.961074 38.684444 -16.400770 4.392260 -30.055172 -20.669031 25.114422 5.346665 9.814746 -10.586188 15.414893 7.466946 
32.006157 45.327763 -127.448250 -59.592861 -6.931350 -78.712334 31.115356 4.983980 -1.718589 -20.839844 0.000000 0.000000 -12.173862 -17.394211 -51.124813 -2.520846 -1.255050 0.218350 -4.754607 -0.109226 -0.002657 -25.679565 -3.324660 -40.376175 -42.580608 16.315002 -43.760162 -25.034445 1.891740 -38.580692 4.754607 0.109226 -0.002676 3.391518 16.153276 -32.442619 57.896488 0.687988 -30.439922 -18.540215 -16.060312 -42.317608 6.566483 -8.466259 -40.064934 31.057007 17.802238 -13.531925 -6.414330 39.405712 -17.637705 4.999054 -30.282412 -21.665066 23.894520 5.737235 9.453299 -9.758793 16.335682 7.186019 
30.906527 45.426762 -130.074493 -61.957840 -6.136120 -79.747078 30.780617 5.442310 -1.340930 -20.839844 0.000000 0.000000 -13.716560 -17.458782 -50.571308 -2.520846 -1.255050 0.218350 -4.754607 -0.109226 -0.002657 -27.015181 -3.692515 -40.333748 -41.080803 16.179585 -44.148251 -25.349384 2.008484 -38.030617 4.754607 0.109226 -0.002676 4.418134 16.566174 -32.461884 59.883587 0.218755 -29.380995 -19.828035 -15.739580 -40.247124 7.761906 -7.714880 -40.246353 27.529732 18.482161 -14.847607 -4.443699 40.269020 -18.813437 5.884139 -29.993713 -22.397278 21.665552 6.059073 8.832756 -8.499337 17.020840 7.293933 
29.763735 45.453167 -132.743362 -64.195900 -5.260690 -80.893944 30.416697 5.869669 -0.958053 -20.839844 0.000000 0.000000 -15.292396 -17.391890 -49.854431 -2.520846 -1.255050 0.218350 -4.754607 -0.109226 -0.002657 -28.207094 -3.668879 -40.275322 -39.749313 16.017530 -44.554989 -25.241093 2.030364 -37.620743 4.754607 0.109226 -0.002676 5.821788 16.552122 -32.332172 62.611935 -0.374193 -28.568089 -21.392210 -15.413599 -38.480312 8.935465 -6.513683 -40.223743 23.331675 18.883230 -16.537128 -2.252218 41.036270 -19.924170 6.923171 -29.384733 -23.148458 18.760769 6.370495 7.863121 -6.979360 17.824137 7.146281 
28.576273 45.382587 -135.436081 -66.344902 -4.316603 -82.106056 30.030111 6.226794 -0.603654 -20.839844 0.000000 0.000000 -16.849831 -17.247068 -48.945030 -2.520846 -1.255050 0.218350 -4.754607 -0.109226 -0.002657 -29.331940 -3.514950 -40.325592 -38.639343 15.999317 -44.678078 -25.180685 2.170268 -36.768730 4.754607 0.109226 -0.002676 7.675890 15.947438 -32.002914 66.269592 -1.113421 -27.830770 -23.293325 -15.378379 -36.769482 10.044261 -4.952372 -40.007923 18.791491 19.059416 -18.392193 0.154491 41.742413 -20.934019 7.956825 -28.660398 -24.260260 15.836869 6.772234 6.662893 -5.443692 19.202490 6.470374 
27.348204 45.213535 -138.145569 -68.468422 -3.342932 -83.331207 29.638533 6.508935 -0.323305 -20.839844 0.000000 0.000000 -18.379002 -17.065159 -47.803986 -2.520846 -1.255050 0.218350 -4.754607 -0.109226 -0.002657 -30.340216 -3.199390 -40.468891 -37.694134 16.075535 -44.736881 -25.356533 2.453216 -35.829163 4.754607 0.109226 -0.002676 9.933486 15.260627 -31.664654 70.287842 -2.054109 -26.856827 -24.694347 -15.477477 -34.849148 11.206949 -3.029257 -39.641903 13.723024 18.871405 -20.464397 2.962686 42.470028 -21.864883 8.880278 -27.805321 -25.525869 13.027756 7.130290 5.286002 -4.046546 21.027267 5.711667 
